<?xml version="1.0" encoding="UTF-8" standalone="no"?>
<!-- Created with Inkscape (http://www.inkscape.org/) -->
<svg
   xmlns:dc="http://purl.org/dc/elements/1.1/"
   xmlns:cc="http://creativecommons.org/ns#"
   xmlns:rdf="http://www.w3.org/1999/02/22-rdf-syntax-ns#"
   xmlns:svg="http://www.w3.org/2000/svg"
   xmlns="http://www.w3.org/2000/svg"
   xmlns:xlink="http://www.w3.org/1999/xlink"
   xmlns:sodipodi="http://sodipodi.sourceforge.net/DTD/sodipodi-0.dtd"
   xmlns:inkscape="http://www.inkscape.org/namespaces/inkscape"
   width="300"
   height="300"
   id="svg2"
   sodipodi:version="0.32"
   inkscape:version="0.46"
   version="1.0"
   sodipodi:docname="krdwrd.svg"
   inkscape:output_extension="org.inkscape.output.svg.inkscape">
  <defs
     id="defs4">
    <linearGradient
       id="linearGradient4039">
      <stop
         style="stop-color:#ffffff;stop-opacity:0.5271318;"
         offset="0"
         id="stop4041" />
      <stop
         style="stop-color:#ffffff;stop-opacity:1;"
         offset="1"
         id="stop4043" />
    </linearGradient>
    <inkscape:perspective
       sodipodi:type="inkscape:persp3d"
       inkscape:vp_x="0 : 526.18109 : 1"
       inkscape:vp_y="0 : 1000 : 0"
       inkscape:vp_z="744.09448 : 526.18109 : 1"
       inkscape:persp3d-origin="372.04724 : 350.78739 : 1"
       id="perspective10" />
    <inkscape:perspective
       id="perspective2563"
       inkscape:persp3d-origin="372.04724 : 350.78739 : 1"
       inkscape:vp_z="744.09448 : 526.18109 : 1"
       inkscape:vp_y="0 : 1000 : 0"
       inkscape:vp_x="0 : 526.18109 : 1"
       sodipodi:type="inkscape:persp3d" />
    <inkscape:perspective
       id="perspective2643"
       inkscape:persp3d-origin="92.610001 : 46.773 : 1"
       inkscape:vp_z="185.22 : 70.1595 : 1"
       inkscape:vp_y="0 : 1000 : 0"
       inkscape:vp_x="0 : 70.1595 : 1"
       sodipodi:type="inkscape:persp3d" />
    <linearGradient
       inkscape:collect="always"
       xlink:href="#linearGradient4039"
       id="linearGradient4045"
       x1="205"
       y1="205"
       x2="205"
       y2="290"
       gradientUnits="userSpaceOnUse"
       gradientTransform="matrix(0.7525952,0,0,1,-0.5190311,0)" />
  </defs>
  <sodipodi:namedview
     id="base"
     pagecolor="#ffffff"
     bordercolor="#666666"
     borderopacity="1.0"
     gridtolerance="10"
     guidetolerance="10"
     objecttolerance="10"
     inkscape:pageopacity="0.0"
     inkscape:pageshadow="2"
     inkscape:zoom="2.89"
     inkscape:cx="145.47391"
     inkscape:cy="150"
     inkscape:document-units="px"
     inkscape:current-layer="layer1"
     showgrid="false"
     inkscape:window-width="1598"
     inkscape:window-height="1198"
     inkscape:window-x="1280"
     inkscape:window-y="0"
     width="300px"
     inkscape:object-paths="false">
    <inkscape:grid
       type="xygrid"
       id="grid3261"
       visible="true"
       enabled="true" />
  </sodipodi:namedview>
  <metadata
     id="metadata7">
    <rdf:RDF>
      <cc:Work
         rdf:about="">
        <dc:format>image/svg+xml</dc:format>
        <dc:type
           rdf:resource="http://purl.org/dc/dcmitype/StillImage" />
      </cc:Work>
    </rdf:RDF>
  </metadata>
  <g
     inkscape:label="Layer 1"
     inkscape:groupmode="layer"
     id="layer1">
    <g
       id="g4121"
       transform="translate(-0.5190305,0.2982019)">
      <g
         transform="translate(141.33084,228.60552)"
         id="g2646">
        <ellipse
           sodipodi:ry="0"
           sodipodi:rx="5"
           sodipodi:cy="82"
           sodipodi:cx="5"
           style="fill:#ff0f00"
           cx="5"
           cy="82"
           rx="5"
           ry="0"
           id="ellipse2588" />
        <g
           transform="matrix(0.3471304,0,0,0.3471304,-107.22868,-154.85738)"
           id="g2416">
          <g
             id="g2685"
             transform="matrix(-1.4224133,-3.1234841,-3.1234841,1.4224133,390.06121,-1261.8617)">
            <g
               id="g2720"
               transform="matrix(-0.5921112,-0.527872,-0.7902503,0.528329,15.523771,-20.73056)">
              <g
                 id="g3506"
                 transform="translate(-71.548447,318.41435)">
                <path
                   style="fill:#000000;fill-rule:evenodd"
                   d="M 22,89 L 24,95 L 25,96 L 25,97 L 26,98 L 27,100 L 27,101 L 28,101 L 29,102 L 30,103 L 34,113 L 35,115 L 36,116 L 36,117 L 37,118 L 38,119 L 39,120 L 39,121 L 40,122 L 41,123 L 42,124 L 43,125 L 44,126 L 44,127 L 45,128 L 46,129 L 47,130 L 48,131 L 49,131 L 49,132 L 50,133 L 50,133 L 51,134 L 51,134 L 51,135 L 52,136 L 53,136 L 54,137 L 55,138 L 56,138 L 57,139 L 58,139 L 60,139 L 60,139 L 60,138 L 60,138 L 59,137 L 59,136 L 58,136 L 58,135 L 58,135 L 57,134 L 57,133 L 57,133 L 57,132 L 57,132 L 57,131 L 57,131 L 57,131 L 58,132 L 59,132 L 61,133 L 62,134 L 63,134 L 65,135 L 66,135 L 68,134 L 68,134 L 69,134 L 69,134 L 69,134 L 69,133 L 69,133 L 69,132 L 69,132 L 68,132 L 68,131 L 67,131 L 67,131 L 66,130 L 66,130 L 66,130 L 65,129 L 65,129 L 66,129 L 66,129 L 66,129 L 67,129 L 68,129 L 68,129 L 69,129 L 69,130 L 70,130 L 71,130 L 71,130 L 72,130 L 73,130 L 74,130 L 75,130 L 76,130 L 76,130 L 77,130 L 78,129 L 78,129 L 78,129 L 78,129 L 78,129 L 78,129 L 78,128 L 78,128 L 78,128 L 73,124 L 74,124 L 75,124 L 76,124 L 77,125 L 78,125 L 79,125 L 80,125 L 81,125 L 82,125 L 82,125 L 83,125 L 83,125 L 84,125 L 84,125 L 84,125 L 85,125 L 85,125 L 85,125 L 85,124 L 85,124 L 85,124 L 85,124 L 85,124 L 85,124 L 84,123 L 84,123 L 84,123 L 83,123 L 83,123 L 83,122 L 82,122 L 82,122 L 82,122 L 82,122 L 82,122 L 82,121 L 90,122 L 91,122 L 91,121 L 91,121 L 92,120 L 92,120 L 91,120 L 91,119 L 90,119 L 89,118 L 88,117 L 89,117 L 90,117 L 91,117 L 93,118 L 94,118 L 95,118 L 97,118 L 98,118 L 98,118 L 99,118 L 99,118 L 99,118 L 100,118 L 100,118 L 101,118 L 101,117 L 101,117 L 101,117 L 101,116 L 101,116 L 97,113 L 97,113 L 97,113 L 97,113 L 97,112 L 98,112 L 100,113 L 101,113 L 103,113 L 104,113 L 106,114 L 107,113 L 109,113 L 108,112 L 103,109 L 103,109 L 103,108 L 103,108 L 103,108 L 105,108 L 107,109 L 108,109 L 110,109 L 112,110 L 114,110 L 115,110 L 117,109 L 117,109 L 117,109 L 117,109 L 117,108 L 117,108 L 117,108 L 117,108 L 117,108 L 112,104 L 112,104 L 112,104 L 112,103 L 112,103 L 114,103 L 115,104 L 117,104 L 118,104 L 120,104 L 121,104 L 123,104 L 124,104 L 124,103 L 125,103 L 125,103 L 125,103 L 125,102 L 125,102 L 124,101 L 124,101 L 123,101 L 122,101 L 122,101 L 121,100 L 121,100 L 121,100 L 121,100 L 121,100 L 123,100 L 124,100 L 126,100 L 127,100 L 129,101 L 130,100 L 132,100 L 133,99 L 133,99 L 133,99 L 133,99 L 133,98 L 127,96 L 127,96 L 127,96 L 127,95 L 127,95 L 129,95 L 130,95 L 132,95 L 133,95 L 135,95 L 136,95 L 138,95 L 139,94 L 139,94 L 140,94 L 140,94 L 140,94 L 140,94 L 140,93 L 140,93 L 139,93 L 134,91 L 134,90 L 134,90 L 134,90 L 134,90 L 135,90 L 137,90 L 138,90 L 140,90 L 141,90 L 143,90 L 144,89 L 146,89 L 146,89 L 146,88 L 146,87 L 146,87 L 142,86 L 155,85 L 155,85 L 155,84 L 155,84 L 155,83 L 150,81 L 162,79 L 162,78 L 163,78 L 162,77 L 162,77 L 157,75 L 165,73 L 165,73 L 165,72 L 165,72 L 165,71 L 164,71 L 163,71 L 162,70 L 161,70 L 160,70 L 159,70 L 158,69 L 157,69 L 155,69 L 154,68 L 153,68 L 152,68 L 151,67 L 150,67 L 150,66 L 149,66 L 147,65 L 145,64 L 144,63 L 142,62 L 141,61 L 139,61 L 138,60 L 136,59 L 135,59 L 135,58 L 134,57 L 133,57 L 132,56 L 132,56 L 131,55 L 130,54 L 133,52 L 134,48 L 137,47 L 140,45 L 143,43 L 146,42 L 149,40 L 153,38 L 156,37 L 159,35 L 162,33 L 165,32 L 168,30 L 172,29 L 175,27 L 178,25 L 181,23 L 184,22 L 186,21 L 188,20 L 189,18 L 191,17 L 193,16 L 194,15 L 196,13 L 197,11 L 197,10 L 198,9 L 198,8 L 198,6 L 198,5 L 198,4 L 197,3 L 197,2 L 195,1 L 194,0 L 192,0 L 190,0 L 188,0 L 187,1 L 185,2 L 183,2 L 181,3 L 179,4 L 176,5 L 174,6 L 172,7 L 170,8 L 168,9 L 166,10 L 164,11 L 162,12 L 160,14 L 158,15 L 156,16 L 154,17 L 152,18 L 150,19 L 148,20 L 146,21 L 144,22 L 142,24 L 140,25 L 138,26 L 136,27 L 134,28 L 132,29 L 130,30 L 128,32 L 126,33 L 124,34 L 122,35 L 120,36 L 119,37 L 118,38 L 118,38 L 117,38 L 117,38 L 117,39 L 116,39 L 116,39 L 116,39 L 114,39 L 113,38 L 112,38 L 111,38 L 109,39 L 108,39 L 107,39 L 106,40 L 105,40 L 103,41 L 102,42 L 101,42 L 100,43 L 99,43 L 98,44 L 96,44 L 94,45 L 92,46 L 90,47 L 88,48 L 86,49 L 84,50 L 82,51 L 79,52 L 77,53 L 75,54 L 73,55 L 71,56 L 69,57 L 67,58 L 65,59 L 63,60 L 61,61 L 59,62 L 57,63 L 55,64 L 53,65 L 51,66 L 49,67 L 47,68 L 45,69 L 43,70 L 41,71 L 39,72 L 37,74 L 35,75 L 33,76 L 31,77 L 29,78 L 28,79 L 26,81 L 25,82 L 24,83 L 23,85 L 23,87 L 22,89 z M 184,11 L 184,11 L 184,11 L 184,11 L 184,11 L 185,11 L 185,11 L 186,11 L 187,11 L 187,11 L 187,11 L 187,10 L 187,10 L 187,10 L 188,10 L 188,9 L 187,9 L 187,9 L 187,8 L 187,8 L 186,8 L 184,9 L 184,11 L 184,11 L 184,11 L 184,11 L 184,11 z"
                   id="path2594" />
                <path
                   style="fill:#ff00ff;fill-opacity:1"
                   d="M 25,90 L 27,95 L 29,95 L 30,94 L 31,94 L 32,93 L 34,93 L 35,92 L 36,92 L 38,91 L 40,90 L 43,89 L 46,88 L 48,87 L 51,85 L 53,84 L 56,83 L 58,82 L 60,80 L 63,79 L 65,78 L 67,76 L 69,75 L 72,73 L 74,72 L 76,70 L 78,69 L 79,68 L 81,67 L 83,66 L 85,65 L 87,65 L 89,64 L 91,63 L 93,63 L 95,62 L 97,62 L 99,61 L 101,60 L 103,59 L 105,58 L 107,57 L 107,56 L 108,55 L 109,55 L 117,51 L 117,50 L 118,50 L 118,49 L 119,49 L 120,49 L 128,47 L 127,47 L 126,47 L 125,46 L 124,46 L 123,45 L 123,44 L 122,44 L 122,43 L 121,43 L 120,43 L 119,43 L 118,42 L 118,41 L 115,42 L 112,43 L 109,43 L 106,44 L 103,45 L 100,46 L 97,47 L 94,48 L 91,49 L 88,50 L 85,52 L 82,53 L 79,54 L 77,56 L 74,57 L 71,58 L 68,60 L 65,61 L 63,63 L 60,64 L 57,66 L 54,67 L 52,69 L 49,70 L 46,72 L 44,73 L 41,75 L 38,77 L 36,78 L 33,80 L 31,81 L 28,83 L 28,84 L 27,84 L 27,85 L 26,86 L 26,87 L 26,88 L 26,89 L 25,90 z"
                   id="path2596" />
                <circle
                   sodipodi:ry="2"
                   sodipodi:rx="2"
                   sodipodi:cy="86"
                   sodipodi:cx="33"
                   style="fill:#000000"
                   cx="33"
                   cy="86"
                   r="2"
                   id="circle2598" />
                <path
                   style="fill:#6b6d69"
                   d="M 33,101 L 33,103 L 34,105 L 34,106 L 35,108 L 36,109 L 36,111 L 37,112 L 38,114 L 38,115 L 39,117 L 40,118 L 41,119 L 42,120 L 43,122 L 44,123 L 45,124 L 45,125 L 46,125 L 47,126 L 46,125 L 45,124 L 44,123 L 44,122 L 43,121 L 42,119 L 42,118 L 41,117 L 41,116 L 40,114 L 40,113 L 39,112 L 39,110 L 38,109 L 38,108 L 37,107 L 37,106 L 37,105 L 36,105 L 36,104 L 37,104 L 37,103 L 38,103 L 39,104 L 39,105 L 40,106 L 40,107 L 40,108 L 41,108 L 41,110 L 41,111 L 42,112 L 43,114 L 43,115 L 44,116 L 44,118 L 45,119 L 46,120 L 47,121 L 47,122 L 48,124 L 49,125 L 50,126 L 51,127 L 53,127 L 52,126 L 51,125 L 50,124 L 50,123 L 49,122 L 48,120 L 48,119 L 47,118 L 46,117 L 46,116 L 45,115 L 44,114 L 44,113 L 44,112 L 43,111 L 43,110 L 44,110 L 45,110 L 46,110 L 46,111 L 46,112 L 47,113 L 48,115 L 49,117 L 50,119 L 52,121 L 53,123 L 54,124 L 56,126 L 57,127 L 57,126 L 56,125 L 56,124 L 55,122 L 54,121 L 53,120 L 53,119 L 52,118 L 51,116 L 51,115 L 50,114 L 49,113 L 49,111 L 48,110 L 48,108 L 47,107 L 48,106 L 48,105 L 49,105 L 49,106 L 50,107 L 50,108 L 51,110 L 51,111 L 52,112 L 53,113 L 53,114 L 54,115 L 54,117 L 55,118 L 56,119 L 57,120 L 57,121 L 58,122 L 58,123 L 59,124 L 59,125 L 60,125 L 61,125 L 61,124 L 53,110 L 54,109 L 55,110 L 56,111 L 57,113 L 58,114 L 59,115 L 60,117 L 61,118 L 62,119 L 68,127 L 69,127 L 70,127 L 68,121 L 67,120 L 67,119 L 66,118 L 65,117 L 64,117 L 63,116 L 62,115 L 61,114 L 61,113 L 60,112 L 59,111 L 59,110 L 58,109 L 58,108 L 58,106 L 57,105 L 58,105 L 59,106 L 60,107 L 60,108 L 61,109 L 62,110 L 63,111 L 63,112 L 64,113 L 65,114 L 66,115 L 67,116 L 68,117 L 69,118 L 70,119 L 70,120 L 71,121 L 77,122 L 75,117 L 76,116 L 75,115 L 74,114 L 73,113 L 72,112 L 71,111 L 70,109 L 69,108 L 68,107 L 67,106 L 66,105 L 65,103 L 64,102 L 64,101 L 63,100 L 62,98 L 61,97 L 62,96 L 62,95 L 63,95 L 63,96 L 64,96 L 65,98 L 66,99 L 67,101 L 68,103 L 70,105 L 71,107 L 72,108 L 74,110 L 75,111 L 80,116 L 79,118 L 80,118 L 85,119 L 84,117 L 83,116 L 81,114 L 80,113 L 79,111 L 77,110 L 76,108 L 75,107 L 74,105 L 72,104 L 71,102 L 70,101 L 69,99 L 68,98 L 67,96 L 66,94 L 66,93 L 67,93 L 69,95 L 70,96 L 71,98 L 72,100 L 74,101 L 75,103 L 76,105 L 78,107 L 79,108 L 81,110 L 83,111 L 84,112 L 86,113 L 89,114 L 91,115 L 93,115 L 94,115 L 95,115 L 94,114 L 93,113 L 92,112 L 90,111 L 88,109 L 87,108 L 85,106 L 84,105 L 82,103 L 81,102 L 80,100 L 79,101 L 78,101 L 77,101 L 71,93 L 72,92 L 73,92 L 74,92 L 74,93 L 75,93 L 75,94 L 76,95 L 77,96 L 73,88 L 73,87 L 74,87 L 75,88 L 76,89 L 77,90 L 77,91 L 78,92 L 78,93 L 79,94 L 80,96 L 81,97 L 82,99 L 83,100 L 84,102 L 86,103 L 87,105 L 88,106 L 89,107 L 90,107 L 90,108 L 91,108 L 92,108 L 93,109 L 94,109 L 95,109 L 96,109 L 97,110 L 98,110 L 99,110 L 100,110 L 98,106 L 98,105 L 99,105 L 100,104 L 110,107 L 105,101 L 103,99 L 101,98 L 99,96 L 97,94 L 95,92 L 93,90 L 92,88 L 90,86 L 90,85 L 90,83 L 91,83 L 92,84 L 92,85 L 93,86 L 94,87 L 95,88 L 96,89 L 97,90 L 98,91 L 99,92 L 100,93 L 101,94 L 102,95 L 103,96 L 104,97 L 105,98 L 107,98 L 107,99 L 108,100 L 109,100 L 111,101 L 112,101 L 113,101 L 114,101 L 115,101 L 116,101 L 115,100 L 114,99 L 114,98 L 113,98 L 113,97 L 114,97 L 114,96 L 124,98 L 124,97 L 124,96 L 123,96 L 122,96 L 122,95 L 121,95 L 120,94 L 120,93 L 120,92 L 121,92 L 133,93 L 126,88 L 127,87 L 128,87 L 138,87 L 137,87 L 137,86 L 136,86 L 136,85 L 135,84 L 135,83 L 136,83 L 136,82 L 146,83 L 146,82 L 145,82 L 144,82 L 143,81 L 143,80 L 143,79 L 144,79 L 155,78 L 154,77 L 153,77 L 152,77 L 151,77 L 150,77 L 150,76 L 149,76 L 148,75 L 149,74 L 150,74 L 151,73 L 152,73 L 153,73 L 154,73 L 155,73 L 156,72 L 157,72 L 156,72 L 154,71 L 152,70 L 151,70 L 149,69 L 147,68 L 146,67 L 144,67 L 143,66 L 141,65 L 140,64 L 138,63 L 137,62 L 135,62 L 134,61 L 132,60 L 132,59 L 131,58 L 130,57 L 129,57 L 129,56 L 128,56 L 127,56 L 126,56 L 125,56 L 124,57 L 122,57 L 121,58 L 120,58 L 119,59 L 118,59 L 117,60 L 120,64 L 130,76 L 130,78 L 129,78 L 127,77 L 126,76 L 125,74 L 123,73 L 122,71 L 121,70 L 120,68 L 119,66 L 118,66 L 118,65 L 117,64 L 116,63 L 116,62 L 115,61 L 114,61 L 113,61 L 114,63 L 115,65 L 116,66 L 117,68 L 119,69 L 120,71 L 121,72 L 122,74 L 123,74 L 123,75 L 124,75 L 124,76 L 125,77 L 126,77 L 126,78 L 127,78 L 127,79 L 128,79 L 128,80 L 129,80 L 130,80 L 130,81 L 131,82 L 130,83 L 130,84 L 129,84 L 128,84 L 127,82 L 126,81 L 125,80 L 123,79 L 122,77 L 121,76 L 120,75 L 119,74 L 118,72 L 117,71 L 116,70 L 115,68 L 114,67 L 113,66 L 112,64 L 111,63 L 110,63 L 109,63 L 109,64 L 109,65 L 110,66 L 111,67 L 112,69 L 114,71 L 115,73 L 117,74 L 118,76 L 119,78 L 121,79 L 121,80 L 122,80 L 122,81 L 123,81 L 124,82 L 124,83 L 124,84 L 123,84 L 121,84 L 120,82 L 119,81 L 118,80 L 117,78 L 116,77 L 114,75 L 113,74 L 109,70 L 106,65 L 102,66 L 104,68 L 105,69 L 106,71 L 107,72 L 108,74 L 109,75 L 110,77 L 112,78 L 113,79 L 114,80 L 115,81 L 115,82 L 116,82 L 116,83 L 117,84 L 118,84 L 119,85 L 119,86 L 120,86 L 121,87 L 122,87 L 122,88 L 123,89 L 123,90 L 122,90 L 121,90 L 120,89 L 118,88 L 117,87 L 116,86 L 114,85 L 113,84 L 112,82 L 111,81 L 109,79 L 108,78 L 107,76 L 106,75 L 105,73 L 104,72 L 102,70 L 101,69 L 100,69 L 100,68 L 99,68 L 98,68 L 97,69 L 96,69 L 95,69 L 94,70 L 93,70 L 92,71 L 91,71 L 90,72 L 89,72 L 88,73 L 87,73 L 86,74 L 85,75 L 84,75 L 83,76 L 82,76 L 80,77 L 79,77 L 78,78 L 77,79 L 76,79 L 74,80 L 71,81 L 69,82 L 66,84 L 64,85 L 61,86 L 58,88 L 56,89 L 53,90 L 51,91 L 48,93 L 46,94 L 43,96 L 41,97 L 38,98 L 36,100 L 33,101 z"
                   id="path2600" />
                <path
                   style="fill:#000000"
                   d="M 39,80 L 40,81 L 41,81 L 42,80 L 42,79 L 41,79 L 40,79 L 39,79 L 39,80 z"
                   id="path2602" />
                <circle
                   sodipodi:ry="4"
                   sodipodi:rx="4"
                   sodipodi:cy="108"
                   sodipodi:cx="67"
                   style="fill:#000000"
                   cx="67"
                   cy="108"
                   r="4"
                   id="circle2604" />
                <path
                   style="fill:#000000"
                   d="M 78,88 L 79,89 L 80,91 L 80,92 L 81,93 L 82,94 L 83,95 L 84,96 L 85,97 L 86,98 L 87,99 L 87,100 L 88,101 L 89,102 L 90,103 L 91,104 L 92,105 L 93,105 L 93,104 L 93,103 L 91,101 L 90,100 L 88,98 L 87,96 L 85,94 L 84,93 L 83,91 L 81,89 L 81,88 L 80,87 L 79,87 L 79,88 L 78,88 z"
                   id="path2606" />
                <path
                   style="fill:#000000"
                   d="M 85,87 L 86,89 L 87,90 L 88,92 L 89,93 L 91,95 L 92,96 L 94,98 L 95,99 L 96,99 L 96,98 L 97,98 L 86,86 L 85,87 z"
                   id="path2610" />
                <path
                   style="fill:#000000"
                   d="M 95,81 L 106,95 L 107,96 L 108,97 L 109,98 L 110,98 L 111,98 L 111,97 L 101,86 L 97,80 L 96,80 L 95,81 z"
                   id="path2612" />
                <circle
                   sodipodi:ry="5"
                   sodipodi:rx="5"
                   sodipodi:cy="84"
                   sodipodi:cx="107"
                   style="fill:#000000"
                   cx="107"
                   cy="84"
                   r="5"
                   id="circle2616" />
                <path
                   style="fill:#ff00ff"
                   d="M 119,40 L 124,41 L 125,41 L 126,41 L 127,40 L 128,40 L 129,40 L 130,39 L 131,39 L 132,39 L 135,38 L 138,37 L 141,36 L 143,35 L 146,33 L 148,32 L 151,30 L 153,29 L 155,27 L 158,26 L 160,24 L 162,23 L 165,22 L 167,20 L 170,19 L 172,19 L 174,18 L 175,17 L 176,16 L 177,16 L 178,15 L 179,14 L 180,14 L 182,14 L 182,13 L 182,12 L 181,11 L 181,10 L 182,9 L 182,8 L 182,7 L 183,7 L 183,6 L 184,6 L 185,6 L 186,5 L 187,5 L 188,6 L 189,6 L 189,7 L 190,7 L 190,8 L 195,5 L 195,4 L 194,3 L 193,3 L 192,2 L 191,3 L 190,3 L 188,3 L 187,3 L 186,4 L 185,4 L 184,5 L 183,5 L 182,5 L 181,6 L 180,6 L 179,7 L 178,7 L 177,8 L 176,8 L 172,10 L 168,12 L 165,14 L 161,16 L 157,18 L 154,20 L 150,22 L 147,24 L 143,26 L 140,28 L 136,30 L 133,32 L 129,34 L 126,36 L 123,38 L 119,40 z"
                   id="path2618" />
                <path
                   style="fill:#000000"
                   d="M 125,59 L 126,61 L 128,63 L 130,65 L 131,66 L 133,68 L 134,70 L 136,72 L 138,74 L 140,75 L 141,75 L 141,74 L 140,73 L 139,72 L 138,71 L 137,70 L 136,69 L 135,68 L 135,67 L 134,66 L 133,65 L 132,64 L 131,63 L 130,62 L 129,61 L 128,60 L 127,59 L 126,58 L 125,59 z"
                   id="path2620" />
                <circle
                   sodipodi:ry="5"
                   sodipodi:rx="5"
                   sodipodi:cy="70"
                   sodipodi:cx="130"
                   style="fill:#000000"
                   cx="130"
                   cy="70"
                   r="5"
                   id="circle2622" />
                <path
                   style="fill:#000000"
                   d="M 136,65 L 137,66 L 138,67 L 139,68 L 140,69 L 142,70 L 143,72 L 144,73 L 146,74 L 147,73 L 146,71 L 145,70 L 144,69 L 142,68 L 141,67 L 140,66 L 139,65 L 137,64 L 136,64 L 136,65 z"
                   id="path2626" />
              </g>
            </g>
          </g>
          <text
             xml:space="preserve"
             style="font-size:440.59417725px;font-style:normal;font-variant:normal;font-weight:normal;font-stretch:normal;text-align:start;line-height:100%;writing-mode:lr-tb;text-anchor:start;fill:#000000;fill-opacity:1;stroke:none;stroke-width:1px;stroke-linecap:butt;stroke-linejoin:miter;stroke-opacity:1;font-family:Trebuchet MS;-inkscape-font-specification:Trebuchet MS"
             x="-113.60553"
             y="317.1449"
             id="text2708"
             sodipodi:linespacing="100%"><tspan
               sodipodi:role="line"
               id="tspan2710"
               x="-113.60553"
               y="317.1449">k</tspan></text>
          <text
             xml:space="preserve"
             style="font-size:440.59417725px;font-style:normal;font-variant:normal;font-weight:normal;font-stretch:normal;text-align:start;line-height:100%;writing-mode:lr-tb;text-anchor:start;fill:#000000;fill-opacity:1;stroke:none;stroke-width:1px;stroke-linecap:butt;stroke-linejoin:miter;stroke-opacity:1;font-family:Trebuchet MS;-inkscape-font-specification:Trebuchet MS"
             x="368.06003"
             y="322.60699"
             id="text2716"
             sodipodi:linespacing="100%"><tspan
               sodipodi:role="line"
               id="tspan2718"
               x="368.06003"
               y="322.60699">rd</tspan></text>
          <text
             xml:space="preserve"
             style="font-size:440.59402466px;font-style:normal;font-variant:normal;font-weight:normal;font-stretch:normal;text-align:start;line-height:100%;writing-mode:lr-tb;text-anchor:start;fill:#ff00ff;fill-opacity:1;stroke:none;stroke-width:1px;stroke-linecap:butt;stroke-linejoin:miter;stroke-opacity:1;font-family:Trebuchet MS;-inkscape-font-specification:Trebuchet MS"
             x="2.4451618"
             y="403.37735"
             id="text2712"
             sodipodi:linespacing="100%"
             transform="matrix(0.9659258,-0.258819,0.258819,0.9659258,0,0)"><tspan
               sodipodi:role="line"
               id="tspan2714"
               x="2.4451618"
               y="403.37735">w</tspan></text>
        </g>
      </g>
      <g
         transform="matrix(1,0,0,-0.4302341,141.33084,195.94908)"
         id="g3207">
        <ellipse
           sodipodi:ry="0"
           sodipodi:rx="5"
           sodipodi:cy="82"
           sodipodi:cx="5"
           style="fill:#ff0f00"
           cx="5"
           cy="82"
           rx="5"
           ry="0"
           id="ellipse3209" />
        <g
           transform="matrix(0.3471304,0,0,0.3471304,-107.22868,-154.85738)"
           id="g3211">
          <g
             id="g3213"
             transform="matrix(-1.4224133,-3.1234841,-3.1234841,1.4224133,390.06121,-1261.8617)">
            <g
               id="g3215"
               transform="matrix(-0.5921112,-0.527872,-0.7902503,0.528329,15.523771,-20.73056)">
              <g
                 id="g3217"
                 transform="translate(-71.548447,318.41435)">
                <path
                   style="fill:#000000;fill-rule:evenodd"
                   d="M 22,89 L 24,95 L 25,96 L 25,97 L 26,98 L 27,100 L 27,101 L 28,101 L 29,102 L 30,103 L 34,113 L 35,115 L 36,116 L 36,117 L 37,118 L 38,119 L 39,120 L 39,121 L 40,122 L 41,123 L 42,124 L 43,125 L 44,126 L 44,127 L 45,128 L 46,129 L 47,130 L 48,131 L 49,131 L 49,132 L 50,133 L 50,133 L 51,134 L 51,134 L 51,135 L 52,136 L 53,136 L 54,137 L 55,138 L 56,138 L 57,139 L 58,139 L 60,139 L 60,139 L 60,138 L 60,138 L 59,137 L 59,136 L 58,136 L 58,135 L 58,135 L 57,134 L 57,133 L 57,133 L 57,132 L 57,132 L 57,131 L 57,131 L 57,131 L 58,132 L 59,132 L 61,133 L 62,134 L 63,134 L 65,135 L 66,135 L 68,134 L 68,134 L 69,134 L 69,134 L 69,134 L 69,133 L 69,133 L 69,132 L 69,132 L 68,132 L 68,131 L 67,131 L 67,131 L 66,130 L 66,130 L 66,130 L 65,129 L 65,129 L 66,129 L 66,129 L 66,129 L 67,129 L 68,129 L 68,129 L 69,129 L 69,130 L 70,130 L 71,130 L 71,130 L 72,130 L 73,130 L 74,130 L 75,130 L 76,130 L 76,130 L 77,130 L 78,129 L 78,129 L 78,129 L 78,129 L 78,129 L 78,129 L 78,128 L 78,128 L 78,128 L 73,124 L 74,124 L 75,124 L 76,124 L 77,125 L 78,125 L 79,125 L 80,125 L 81,125 L 82,125 L 82,125 L 83,125 L 83,125 L 84,125 L 84,125 L 84,125 L 85,125 L 85,125 L 85,125 L 85,124 L 85,124 L 85,124 L 85,124 L 85,124 L 85,124 L 84,123 L 84,123 L 84,123 L 83,123 L 83,123 L 83,122 L 82,122 L 82,122 L 82,122 L 82,122 L 82,122 L 82,121 L 90,122 L 91,122 L 91,121 L 91,121 L 92,120 L 92,120 L 91,120 L 91,119 L 90,119 L 89,118 L 88,117 L 89,117 L 90,117 L 91,117 L 93,118 L 94,118 L 95,118 L 97,118 L 98,118 L 98,118 L 99,118 L 99,118 L 99,118 L 100,118 L 100,118 L 101,118 L 101,117 L 101,117 L 101,117 L 101,116 L 101,116 L 97,113 L 97,113 L 97,113 L 97,113 L 97,112 L 98,112 L 100,113 L 101,113 L 103,113 L 104,113 L 106,114 L 107,113 L 109,113 L 108,112 L 103,109 L 103,109 L 103,108 L 103,108 L 103,108 L 105,108 L 107,109 L 108,109 L 110,109 L 112,110 L 114,110 L 115,110 L 117,109 L 117,109 L 117,109 L 117,109 L 117,108 L 117,108 L 117,108 L 117,108 L 117,108 L 112,104 L 112,104 L 112,104 L 112,103 L 112,103 L 114,103 L 115,104 L 117,104 L 118,104 L 120,104 L 121,104 L 123,104 L 124,104 L 124,103 L 125,103 L 125,103 L 125,103 L 125,102 L 125,102 L 124,101 L 124,101 L 123,101 L 122,101 L 122,101 L 121,100 L 121,100 L 121,100 L 121,100 L 121,100 L 123,100 L 124,100 L 126,100 L 127,100 L 129,101 L 130,100 L 132,100 L 133,99 L 133,99 L 133,99 L 133,99 L 133,98 L 127,96 L 127,96 L 127,96 L 127,95 L 127,95 L 129,95 L 130,95 L 132,95 L 133,95 L 135,95 L 136,95 L 138,95 L 139,94 L 139,94 L 140,94 L 140,94 L 140,94 L 140,94 L 140,93 L 140,93 L 139,93 L 134,91 L 134,90 L 134,90 L 134,90 L 134,90 L 135,90 L 137,90 L 138,90 L 140,90 L 141,90 L 143,90 L 144,89 L 146,89 L 146,89 L 146,88 L 146,87 L 146,87 L 142,86 L 155,85 L 155,85 L 155,84 L 155,84 L 155,83 L 150,81 L 162,79 L 162,78 L 163,78 L 162,77 L 162,77 L 157,75 L 165,73 L 165,73 L 165,72 L 165,72 L 165,71 L 164,71 L 163,71 L 162,70 L 161,70 L 160,70 L 159,70 L 158,69 L 157,69 L 155,69 L 154,68 L 153,68 L 152,68 L 151,67 L 150,67 L 150,66 L 149,66 L 147,65 L 145,64 L 144,63 L 142,62 L 141,61 L 139,61 L 138,60 L 136,59 L 135,59 L 135,58 L 134,57 L 133,57 L 132,56 L 132,56 L 131,55 L 130,54 L 133,52 L 134,48 L 137,47 L 140,45 L 143,43 L 146,42 L 149,40 L 153,38 L 156,37 L 159,35 L 162,33 L 165,32 L 168,30 L 172,29 L 175,27 L 178,25 L 181,23 L 184,22 L 186,21 L 188,20 L 189,18 L 191,17 L 193,16 L 194,15 L 196,13 L 197,11 L 197,10 L 198,9 L 198,8 L 198,6 L 198,5 L 198,4 L 197,3 L 197,2 L 195,1 L 194,0 L 192,0 L 190,0 L 188,0 L 187,1 L 185,2 L 183,2 L 181,3 L 179,4 L 176,5 L 174,6 L 172,7 L 170,8 L 168,9 L 166,10 L 164,11 L 162,12 L 160,14 L 158,15 L 156,16 L 154,17 L 152,18 L 150,19 L 148,20 L 146,21 L 144,22 L 142,24 L 140,25 L 138,26 L 136,27 L 134,28 L 132,29 L 130,30 L 128,32 L 126,33 L 124,34 L 122,35 L 120,36 L 119,37 L 118,38 L 118,38 L 117,38 L 117,38 L 117,39 L 116,39 L 116,39 L 116,39 L 114,39 L 113,38 L 112,38 L 111,38 L 109,39 L 108,39 L 107,39 L 106,40 L 105,40 L 103,41 L 102,42 L 101,42 L 100,43 L 99,43 L 98,44 L 96,44 L 94,45 L 92,46 L 90,47 L 88,48 L 86,49 L 84,50 L 82,51 L 79,52 L 77,53 L 75,54 L 73,55 L 71,56 L 69,57 L 67,58 L 65,59 L 63,60 L 61,61 L 59,62 L 57,63 L 55,64 L 53,65 L 51,66 L 49,67 L 47,68 L 45,69 L 43,70 L 41,71 L 39,72 L 37,74 L 35,75 L 33,76 L 31,77 L 29,78 L 28,79 L 26,81 L 25,82 L 24,83 L 23,85 L 23,87 L 22,89 z M 184,11 L 184,11 L 184,11 L 184,11 L 184,11 L 185,11 L 185,11 L 186,11 L 187,11 L 187,11 L 187,11 L 187,10 L 187,10 L 187,10 L 188,10 L 188,9 L 187,9 L 187,9 L 187,8 L 187,8 L 186,8 L 184,9 L 184,11 L 184,11 L 184,11 L 184,11 L 184,11 z"
                   id="path3219" />
                <path
                   style="fill:#ff00ff;fill-opacity:1"
                   d="M 25,90 L 27,95 L 29,95 L 30,94 L 31,94 L 32,93 L 34,93 L 35,92 L 36,92 L 38,91 L 40,90 L 43,89 L 46,88 L 48,87 L 51,85 L 53,84 L 56,83 L 58,82 L 60,80 L 63,79 L 65,78 L 67,76 L 69,75 L 72,73 L 74,72 L 76,70 L 78,69 L 79,68 L 81,67 L 83,66 L 85,65 L 87,65 L 89,64 L 91,63 L 93,63 L 95,62 L 97,62 L 99,61 L 101,60 L 103,59 L 105,58 L 107,57 L 107,56 L 108,55 L 109,55 L 117,51 L 117,50 L 118,50 L 118,49 L 119,49 L 120,49 L 128,47 L 127,47 L 126,47 L 125,46 L 124,46 L 123,45 L 123,44 L 122,44 L 122,43 L 121,43 L 120,43 L 119,43 L 118,42 L 118,41 L 115,42 L 112,43 L 109,43 L 106,44 L 103,45 L 100,46 L 97,47 L 94,48 L 91,49 L 88,50 L 85,52 L 82,53 L 79,54 L 77,56 L 74,57 L 71,58 L 68,60 L 65,61 L 63,63 L 60,64 L 57,66 L 54,67 L 52,69 L 49,70 L 46,72 L 44,73 L 41,75 L 38,77 L 36,78 L 33,80 L 31,81 L 28,83 L 28,84 L 27,84 L 27,85 L 26,86 L 26,87 L 26,88 L 26,89 L 25,90 z"
                   id="path3221" />
                <circle
                   sodipodi:ry="2"
                   sodipodi:rx="2"
                   sodipodi:cy="86"
                   sodipodi:cx="33"
                   style="fill:#000000"
                   cx="33"
                   cy="86"
                   r="2"
                   id="circle3223" />
                <path
                   style="fill:#6b6d69"
                   d="M 33,101 L 33,103 L 34,105 L 34,106 L 35,108 L 36,109 L 36,111 L 37,112 L 38,114 L 38,115 L 39,117 L 40,118 L 41,119 L 42,120 L 43,122 L 44,123 L 45,124 L 45,125 L 46,125 L 47,126 L 46,125 L 45,124 L 44,123 L 44,122 L 43,121 L 42,119 L 42,118 L 41,117 L 41,116 L 40,114 L 40,113 L 39,112 L 39,110 L 38,109 L 38,108 L 37,107 L 37,106 L 37,105 L 36,105 L 36,104 L 37,104 L 37,103 L 38,103 L 39,104 L 39,105 L 40,106 L 40,107 L 40,108 L 41,108 L 41,110 L 41,111 L 42,112 L 43,114 L 43,115 L 44,116 L 44,118 L 45,119 L 46,120 L 47,121 L 47,122 L 48,124 L 49,125 L 50,126 L 51,127 L 53,127 L 52,126 L 51,125 L 50,124 L 50,123 L 49,122 L 48,120 L 48,119 L 47,118 L 46,117 L 46,116 L 45,115 L 44,114 L 44,113 L 44,112 L 43,111 L 43,110 L 44,110 L 45,110 L 46,110 L 46,111 L 46,112 L 47,113 L 48,115 L 49,117 L 50,119 L 52,121 L 53,123 L 54,124 L 56,126 L 57,127 L 57,126 L 56,125 L 56,124 L 55,122 L 54,121 L 53,120 L 53,119 L 52,118 L 51,116 L 51,115 L 50,114 L 49,113 L 49,111 L 48,110 L 48,108 L 47,107 L 48,106 L 48,105 L 49,105 L 49,106 L 50,107 L 50,108 L 51,110 L 51,111 L 52,112 L 53,113 L 53,114 L 54,115 L 54,117 L 55,118 L 56,119 L 57,120 L 57,121 L 58,122 L 58,123 L 59,124 L 59,125 L 60,125 L 61,125 L 61,124 L 53,110 L 54,109 L 55,110 L 56,111 L 57,113 L 58,114 L 59,115 L 60,117 L 61,118 L 62,119 L 68,127 L 69,127 L 70,127 L 68,121 L 67,120 L 67,119 L 66,118 L 65,117 L 64,117 L 63,116 L 62,115 L 61,114 L 61,113 L 60,112 L 59,111 L 59,110 L 58,109 L 58,108 L 58,106 L 57,105 L 58,105 L 59,106 L 60,107 L 60,108 L 61,109 L 62,110 L 63,111 L 63,112 L 64,113 L 65,114 L 66,115 L 67,116 L 68,117 L 69,118 L 70,119 L 70,120 L 71,121 L 77,122 L 75,117 L 76,116 L 75,115 L 74,114 L 73,113 L 72,112 L 71,111 L 70,109 L 69,108 L 68,107 L 67,106 L 66,105 L 65,103 L 64,102 L 64,101 L 63,100 L 62,98 L 61,97 L 62,96 L 62,95 L 63,95 L 63,96 L 64,96 L 65,98 L 66,99 L 67,101 L 68,103 L 70,105 L 71,107 L 72,108 L 74,110 L 75,111 L 80,116 L 79,118 L 80,118 L 85,119 L 84,117 L 83,116 L 81,114 L 80,113 L 79,111 L 77,110 L 76,108 L 75,107 L 74,105 L 72,104 L 71,102 L 70,101 L 69,99 L 68,98 L 67,96 L 66,94 L 66,93 L 67,93 L 69,95 L 70,96 L 71,98 L 72,100 L 74,101 L 75,103 L 76,105 L 78,107 L 79,108 L 81,110 L 83,111 L 84,112 L 86,113 L 89,114 L 91,115 L 93,115 L 94,115 L 95,115 L 94,114 L 93,113 L 92,112 L 90,111 L 88,109 L 87,108 L 85,106 L 84,105 L 82,103 L 81,102 L 80,100 L 79,101 L 78,101 L 77,101 L 71,93 L 72,92 L 73,92 L 74,92 L 74,93 L 75,93 L 75,94 L 76,95 L 77,96 L 73,88 L 73,87 L 74,87 L 75,88 L 76,89 L 77,90 L 77,91 L 78,92 L 78,93 L 79,94 L 80,96 L 81,97 L 82,99 L 83,100 L 84,102 L 86,103 L 87,105 L 88,106 L 89,107 L 90,107 L 90,108 L 91,108 L 92,108 L 93,109 L 94,109 L 95,109 L 96,109 L 97,110 L 98,110 L 99,110 L 100,110 L 98,106 L 98,105 L 99,105 L 100,104 L 110,107 L 105,101 L 103,99 L 101,98 L 99,96 L 97,94 L 95,92 L 93,90 L 92,88 L 90,86 L 90,85 L 90,83 L 91,83 L 92,84 L 92,85 L 93,86 L 94,87 L 95,88 L 96,89 L 97,90 L 98,91 L 99,92 L 100,93 L 101,94 L 102,95 L 103,96 L 104,97 L 105,98 L 107,98 L 107,99 L 108,100 L 109,100 L 111,101 L 112,101 L 113,101 L 114,101 L 115,101 L 116,101 L 115,100 L 114,99 L 114,98 L 113,98 L 113,97 L 114,97 L 114,96 L 124,98 L 124,97 L 124,96 L 123,96 L 122,96 L 122,95 L 121,95 L 120,94 L 120,93 L 120,92 L 121,92 L 133,93 L 126,88 L 127,87 L 128,87 L 138,87 L 137,87 L 137,86 L 136,86 L 136,85 L 135,84 L 135,83 L 136,83 L 136,82 L 146,83 L 146,82 L 145,82 L 144,82 L 143,81 L 143,80 L 143,79 L 144,79 L 155,78 L 154,77 L 153,77 L 152,77 L 151,77 L 150,77 L 150,76 L 149,76 L 148,75 L 149,74 L 150,74 L 151,73 L 152,73 L 153,73 L 154,73 L 155,73 L 156,72 L 157,72 L 156,72 L 154,71 L 152,70 L 151,70 L 149,69 L 147,68 L 146,67 L 144,67 L 143,66 L 141,65 L 140,64 L 138,63 L 137,62 L 135,62 L 134,61 L 132,60 L 132,59 L 131,58 L 130,57 L 129,57 L 129,56 L 128,56 L 127,56 L 126,56 L 125,56 L 124,57 L 122,57 L 121,58 L 120,58 L 119,59 L 118,59 L 117,60 L 120,64 L 130,76 L 130,78 L 129,78 L 127,77 L 126,76 L 125,74 L 123,73 L 122,71 L 121,70 L 120,68 L 119,66 L 118,66 L 118,65 L 117,64 L 116,63 L 116,62 L 115,61 L 114,61 L 113,61 L 114,63 L 115,65 L 116,66 L 117,68 L 119,69 L 120,71 L 121,72 L 122,74 L 123,74 L 123,75 L 124,75 L 124,76 L 125,77 L 126,77 L 126,78 L 127,78 L 127,79 L 128,79 L 128,80 L 129,80 L 130,80 L 130,81 L 131,82 L 130,83 L 130,84 L 129,84 L 128,84 L 127,82 L 126,81 L 125,80 L 123,79 L 122,77 L 121,76 L 120,75 L 119,74 L 118,72 L 117,71 L 116,70 L 115,68 L 114,67 L 113,66 L 112,64 L 111,63 L 110,63 L 109,63 L 109,64 L 109,65 L 110,66 L 111,67 L 112,69 L 114,71 L 115,73 L 117,74 L 118,76 L 119,78 L 121,79 L 121,80 L 122,80 L 122,81 L 123,81 L 124,82 L 124,83 L 124,84 L 123,84 L 121,84 L 120,82 L 119,81 L 118,80 L 117,78 L 116,77 L 114,75 L 113,74 L 109,70 L 106,65 L 102,66 L 104,68 L 105,69 L 106,71 L 107,72 L 108,74 L 109,75 L 110,77 L 112,78 L 113,79 L 114,80 L 115,81 L 115,82 L 116,82 L 116,83 L 117,84 L 118,84 L 119,85 L 119,86 L 120,86 L 121,87 L 122,87 L 122,88 L 123,89 L 123,90 L 122,90 L 121,90 L 120,89 L 118,88 L 117,87 L 116,86 L 114,85 L 113,84 L 112,82 L 111,81 L 109,79 L 108,78 L 107,76 L 106,75 L 105,73 L 104,72 L 102,70 L 101,69 L 100,69 L 100,68 L 99,68 L 98,68 L 97,69 L 96,69 L 95,69 L 94,70 L 93,70 L 92,71 L 91,71 L 90,72 L 89,72 L 88,73 L 87,73 L 86,74 L 85,75 L 84,75 L 83,76 L 82,76 L 80,77 L 79,77 L 78,78 L 77,79 L 76,79 L 74,80 L 71,81 L 69,82 L 66,84 L 64,85 L 61,86 L 58,88 L 56,89 L 53,90 L 51,91 L 48,93 L 46,94 L 43,96 L 41,97 L 38,98 L 36,100 L 33,101 z"
                   id="path3225" />
                <path
                   style="fill:#000000"
                   d="M 39,80 L 40,81 L 41,81 L 42,80 L 42,79 L 41,79 L 40,79 L 39,79 L 39,80 z"
                   id="path3227" />
                <circle
                   sodipodi:ry="4"
                   sodipodi:rx="4"
                   sodipodi:cy="108"
                   sodipodi:cx="67"
                   style="fill:#000000"
                   cx="67"
                   cy="108"
                   r="4"
                   id="circle3229" />
                <path
                   style="fill:#000000"
                   d="M 78,88 L 79,89 L 80,91 L 80,92 L 81,93 L 82,94 L 83,95 L 84,96 L 85,97 L 86,98 L 87,99 L 87,100 L 88,101 L 89,102 L 90,103 L 91,104 L 92,105 L 93,105 L 93,104 L 93,103 L 91,101 L 90,100 L 88,98 L 87,96 L 85,94 L 84,93 L 83,91 L 81,89 L 81,88 L 80,87 L 79,87 L 79,88 L 78,88 z"
                   id="path3231" />
                <path
                   style="fill:#000000"
                   d="M 85,87 L 86,89 L 87,90 L 88,92 L 89,93 L 91,95 L 92,96 L 94,98 L 95,99 L 96,99 L 96,98 L 97,98 L 86,86 L 85,87 z"
                   id="path3233" />
                <path
                   style="fill:#000000"
                   d="M 95,81 L 106,95 L 107,96 L 108,97 L 109,98 L 110,98 L 111,98 L 111,97 L 101,86 L 97,80 L 96,80 L 95,81 z"
                   id="path3235" />
                <circle
                   sodipodi:ry="5"
                   sodipodi:rx="5"
                   sodipodi:cy="84"
                   sodipodi:cx="107"
                   style="fill:#000000"
                   cx="107"
                   cy="84"
                   r="5"
                   id="circle3237" />
                <path
                   style="fill:#ff00ff"
                   d="M 119,40 L 124,41 L 125,41 L 126,41 L 127,40 L 128,40 L 129,40 L 130,39 L 131,39 L 132,39 L 135,38 L 138,37 L 141,36 L 143,35 L 146,33 L 148,32 L 151,30 L 153,29 L 155,27 L 158,26 L 160,24 L 162,23 L 165,22 L 167,20 L 170,19 L 172,19 L 174,18 L 175,17 L 176,16 L 177,16 L 178,15 L 179,14 L 180,14 L 182,14 L 182,13 L 182,12 L 181,11 L 181,10 L 182,9 L 182,8 L 182,7 L 183,7 L 183,6 L 184,6 L 185,6 L 186,5 L 187,5 L 188,6 L 189,6 L 189,7 L 190,7 L 190,8 L 195,5 L 195,4 L 194,3 L 193,3 L 192,2 L 191,3 L 190,3 L 188,3 L 187,3 L 186,4 L 185,4 L 184,5 L 183,5 L 182,5 L 181,6 L 180,6 L 179,7 L 178,7 L 177,8 L 176,8 L 172,10 L 168,12 L 165,14 L 161,16 L 157,18 L 154,20 L 150,22 L 147,24 L 143,26 L 140,28 L 136,30 L 133,32 L 129,34 L 126,36 L 123,38 L 119,40 z"
                   id="path3239" />
                <path
                   style="fill:#000000"
                   d="M 125,59 L 126,61 L 128,63 L 130,65 L 131,66 L 133,68 L 134,70 L 136,72 L 138,74 L 140,75 L 141,75 L 141,74 L 140,73 L 139,72 L 138,71 L 137,70 L 136,69 L 135,68 L 135,67 L 134,66 L 133,65 L 132,64 L 131,63 L 130,62 L 129,61 L 128,60 L 127,59 L 126,58 L 125,59 z"
                   id="path3241" />
                <circle
                   sodipodi:ry="5"
                   sodipodi:rx="5"
                   sodipodi:cy="70"
                   sodipodi:cx="130"
                   style="fill:#000000"
                   cx="130"
                   cy="70"
                   r="5"
                   id="circle3243" />
                <path
                   style="fill:#000000"
                   d="M 136,65 L 137,66 L 138,67 L 139,68 L 140,69 L 142,70 L 143,72 L 144,73 L 146,74 L 147,73 L 146,71 L 145,70 L 144,69 L 142,68 L 141,67 L 140,66 L 139,65 L 137,64 L 136,64 L 136,65 z"
                   id="path3245" />
              </g>
            </g>
          </g>
          <text
             xml:space="preserve"
             style="font-size:440.59417725px;font-style:normal;font-variant:normal;font-weight:normal;font-stretch:normal;text-align:start;line-height:100%;writing-mode:lr-tb;text-anchor:start;fill:#000000;fill-opacity:1;stroke:none;stroke-width:1px;stroke-linecap:butt;stroke-linejoin:miter;stroke-opacity:1;font-family:Trebuchet MS;-inkscape-font-specification:Trebuchet MS"
             x="-113.60553"
             y="317.1449"
             id="text3247"
             sodipodi:linespacing="100%"><tspan
               sodipodi:role="line"
               id="tspan3249"
               x="-113.60553"
               y="317.1449">k</tspan></text>
          <text
             xml:space="preserve"
             style="font-size:440.59417725px;font-style:normal;font-variant:normal;font-weight:normal;font-stretch:normal;text-align:start;line-height:100%;writing-mode:lr-tb;text-anchor:start;fill:#000000;fill-opacity:1;stroke:none;stroke-width:1px;stroke-linecap:butt;stroke-linejoin:miter;stroke-opacity:1;font-family:Trebuchet MS;-inkscape-font-specification:Trebuchet MS"
             x="368.06003"
             y="322.60699"
             id="text3251"
             sodipodi:linespacing="100%"><tspan
               sodipodi:role="line"
               id="tspan3253"
               x="368.06003"
               y="322.60699">rd</tspan></text>
          <text
             xml:space="preserve"
             style="font-size:440.59402466px;font-style:normal;font-variant:normal;font-weight:normal;font-stretch:normal;text-align:start;line-height:100%;writing-mode:lr-tb;text-anchor:start;fill:#ff00ff;fill-opacity:1;stroke:none;stroke-width:1px;stroke-linecap:butt;stroke-linejoin:miter;stroke-opacity:1;font-family:Trebuchet MS;-inkscape-font-specification:Trebuchet MS"
             x="2.4451618"
             y="403.37735"
             id="text3255"
             sodipodi:linespacing="100%"
             transform="matrix(0.9659258,-0.258819,0.258819,0.9659258,0,0)"><tspan
               sodipodi:role="line"
               id="tspan3257"
               x="2.4451618"
               y="403.37735">w</tspan></text>
        </g>
      </g>
    </g>
    <rect
       style="opacity:1;fill:url(#linearGradient4045);fill-opacity:1;fill-rule:nonzero;stroke:none;stroke-width:7.5;stroke-linecap:round;stroke-linejoin:round;marker:none;marker-start:none;marker-mid:none;marker-end:none;stroke-miterlimit:10;stroke-dasharray:none;stroke-dashoffset:0;stroke-opacity:1;visibility:visible;display:inline;overflow:visible;enable-background:accumulate"
       id="rect4037"
       width="301.03806"
       height="95"
       x="-0.51903117"
       y="205" />
  </g>
</svg>
